<svg width="70" height="35" viewBox="0 0 70 35" fill="none" xmlns="http://www.w3.org/2000/svg">
<path d="M69.5 17.5005C69.5 22.0416 65.8057 26.2873 59.5251 29.4276C53.2744 32.553 44.6042 34.5005 35 34.5005C25.3958 34.5005 16.7256 32.553 10.4749 29.4276C4.19427 26.2873 0.5 22.0416 0.5 17.5005C0.5 12.9594 4.19427 8.71363 10.4749 5.57333C16.7256 2.44799 25.3958 0.500488 35 0.500488C44.6042 0.500488 53.2744 2.44799 59.5251 5.57333C65.8057 8.71363 69.5 12.9594 69.5 17.5005Z" stroke="white"/>
<path fill-rule="evenodd" clip-rule="evenodd" d="M16.0886 14.85V13.0131C16.0886 9.13337 18.1494 7.69092 20.8784 7.69092C21.5031 7.69092 21.9962 7.75668 22.9168 7.88819V10.6076C22.5014 10.566 22.2205 10.577 21.8694 10.5907C21.6648 10.5987 21.4364 10.6076 21.1435 10.6076C20.1667 10.6076 19.8178 10.9532 19.8178 12.7287V14.8499H22.9996V17.5014L19.8178 17.5015V26.516H16.2663L16.0886 17.5015H13.7871V14.85H16.0886ZM16.3669 31.623L16.3708 31.8196L16.7883 31.8196L16.3669 31.623ZM51.3708 26.516V17.4747H54.5929V14.8115H51.3708L51.4111 9.28183H48.189L48.1487 14.8115H45.7156V17.4747H48.1487L48.1881 26.516H51.3708ZM44.3613 26.516V20.3821C44.3613 16.0421 41.5655 14.3899 38.1132 14.3899C32.9841 14.3899 30.5882 17.0011 30.4238 20.2233L34.0374 20.3492C34.2017 18.1135 34.9218 17.0414 37.848 17.0414C40.314 17.0414 41.0299 18.2113 41.0299 19.4278C41.0299 21.0213 39.5151 21.3044 37.0266 21.7694L36.7874 21.8142C32.9533 22.5387 30.1243 23.4672 29.6872 26.516H33.422C33.7821 25.3073 35.0606 24.6556 37.5225 24.1632C39.2322 23.8015 40.5038 23.368 41.0299 22.8748V25.2611C41.0299 25.712 40.9833 26.1305 40.8939 26.516H44.3613ZM27.8592 26.516V7.95607H24.6371V26.516H27.8592Z" fill="white"/>
<path d="M56.211 11.1369H55.6807L55.6807 8.75049H57.5367V9.28079H56.211V9.67028H57.2716V10.0762H56.211V11.1369Z" fill="white"/>
<circle cx="56.6353" cy="9.97072" r="2.51515" stroke="white"/>
</svg>
