<svg width="20" height="20" viewBox="0 0 20 20" fill="none" xmlns="http://www.w3.org/2000/svg">
<g clip-path="url(#clip0_373_474)">
<path d="M10 0.625C5.90625 0.625 2.4375 3.25 1.15625 6.875H18.8437C17.5625 3.25 14.0937 0.625 10 0.625Z" fill="#CE2028"/>
<path d="M10 19.375C14.0937 19.375 17.5625 16.7812 18.8437 13.125H1.15625C2.4375 16.7812 5.90625 19.375 10 19.375Z" fill="#F9F9F9"/>
<path d="M1.15625 6.875C0.8125 7.84375 0.625 8.90625 0.625 10C0.625 11.0938 0.8125 12.1563 1.15625 13.125H18.8437C19.1875 12.1563 19.375 11.0938 19.375 10C19.375 8.90625 19.1875 7.84375 18.8437 6.875H1.15625Z" fill="#22408C"/>
<path d="M4.84375 6.78125V11.8438C4.84375 13.5938 6.3125 15 8.125 15C9.9375 15 11.4062 13.5938 11.4062 11.8438V6.78125H4.84375Z" fill="#CE2028"/>
<path d="M9.31156 14.4687L9.24906 14.1875L8.99906 13.75L9.09281 13.6875L9.03031 13.4063L8.81156 13.0625L8.87406 13.0313L8.81156 12.75L8.65531 12.4375L8.90531 11.9687L9.06156 12.4688L9.18656 12.2812L9.37406 12.5625L9.43656 12.375L9.62406 12.4688L9.59281 12.0938L10.0303 12.2187L9.71781 11.8125H9.74906L9.49906 11.3125L9.56156 11.125L9.71781 11.4375L9.78031 11.3125L10.0303 12V11.9687L10.1553 12.2187L10.2178 12.0938L10.4678 12.5937L10.5616 12.3125L10.9366 12.5937C10.9366 12.5937 10.9053 11.6563 10.9053 11.375C10.9678 10.5625 11.2491 8.90625 11.0303 8.15625C10.9366 7.78125 10.1866 6.875 10.1866 6.875C10.1866 6.875 10.1553 7.96875 9.96781 8.3125C9.90531 8.4375 9.34281 8.78125 9.34281 8.78125L9.12406 8.75L9.21781 8.71875L8.81156 8.3125L8.96781 7.5L9.37406 6.90625L8.74906 6.9375L8.28031 7.0625L8.40531 7.25L8.12406 8.25L7.84281 7.28125L7.96781 7.09375L7.49906 6.9375L6.87406 6.90625L7.28031 7.5L7.43656 8.3125L7.03031 8.71875L7.12406 8.75L6.87406 8.8125C6.87406 8.8125 6.31156 8.46875 6.24906 8.34375C6.06156 8.03125 6.03031 6.90625 6.03031 6.90625C6.03031 6.90625 5.28031 7.8125 5.18656 8.1875C4.96781 8.96875 5.28031 10.625 5.31156 11.4062C5.34281 11.7188 5.28031 12.625 5.28031 12.625L5.65531 12.3438L5.74906 12.625L5.99906 12.125L6.06156 12.25L6.18656 12V12.0312L6.43656 11.3437L6.49906 11.4688L6.65531 11.1563L6.71781 11.3437L6.46781 11.8438H6.49906L6.18656 12.25L6.62406 12.125V12.5L6.81156 12.4063L6.87406 12.5937L7.06156 12.3125L7.18656 12.5L7.34281 12L7.59281 12.4688L7.43656 12.7813L7.37406 13.0625L7.43656 13.0938L7.21781 13.4375L7.15531 13.7188L7.24906 13.7812L7.03031 14.25L6.96781 14.5312L9.31156 14.4687Z" fill="#F9F9F9"/>
<path d="M6.25 13.0312L6.3125 12.9062L6.59375 12.7812L6.78125 12.7187H6.90625L6.9375 12.6875L6.75 12.5937L6.71875 12.5625L6.5625 12.625L6.4375 12.7187L6.6875 12.4062L6.90625 11.9062L6.5625 12.125L6.25 12.6875L6.125 12.75H5.8125L5.65625 12.7187L5.46875 12.8125L5.5 12.8437H5.625L5.75 12.9062L6.03125 12.875L5.71875 12.9687L5.65625 13.0937V13.2812H5.6875L5.71875 13.1875H5.875L6.15625 12.9375L5.9375 13.2812L5.90625 13.4375L6 13.6562L6.0625 13.625V13.4687L6.1875 13.3437L6.25 13.0312ZM9.96875 13.0312L9.9375 12.9062L9.65625 12.7812L9.46875 12.7187H9.34375L9.3125 12.6875L9.5 12.5937L9.53125 12.5625L9.6875 12.625L9.8125 12.7187L9.5625 12.4062L9.34375 11.9062L9.6875 12.125L10 12.6875L10.125 12.75H10.4375L10.5938 12.7187L10.7812 12.8125L10.75 12.8437H10.625L10.5 12.9062L10.2188 12.875L10.5313 12.9687L10.5938 13.0937V13.2812H10.5625L10.5313 13.1875H10.375L10.0937 12.9375L10.3125 13.2812L10.3437 13.4375L10.25 13.6562L10.1875 13.625V13.4687L10.0625 13.3437L9.96875 13.0312ZM6.6875 6.93749C6.375 6.96874 6.40625 7.18749 6.6875 7.46874C6.75 7.53124 6.75 7.53124 6.78125 7.46874C6.8125 7.37499 6.90625 7.31249 6.96875 7.37499C7 7.43749 7 7.46874 7.125 7.43749C7.15625 7.46874 7.21875 7.49999 7.25 7.53124C7.21875 7.53124 7.09375 7.56249 6.90625 7.59374C6.75 7.62499 6.65625 7.56249 6.53125 7.43749C6.5625 7.59374 6.9375 7.68749 6.90625 7.68749C6.9375 7.74999 6.9375 7.78124 6.96875 7.78124C7.09375 7.81249 7.21875 7.71874 7.34375 7.74999C7.625 7.81249 7.15625 7.03124 7.1875 6.99999C7.21875 6.93749 6.78125 6.81249 6.6875 6.93749ZM9.25 7.81249C9.28125 7.81249 9.28125 7.81249 9.3125 7.71874C9.28125 7.71874 9.65625 7.62499 9.6875 7.46874C9.59375 7.59374 9.46875 7.65624 9.3125 7.62499C9.125 7.59374 9 7.53124 8.96875 7.56249C9 7.53124 9.03125 7.49999 9.09375 7.46874C9.21875 7.49999 9.21875 7.46874 9.25 7.40624C9.3125 7.34374 9.40625 7.37499 9.4375 7.49999C9.4375 7.56249 9.46875 7.56249 9.53125 7.49999C9.8125 7.21874 9.84375 6.99999 9.53125 6.96874C9.46875 6.84374 9.03125 6.96874 9.0625 7.06249C9.0625 7.09374 8.625 7.87499 8.90625 7.81249C9 7.74999 9.125 7.81249 9.25 7.81249Z" fill="#FFCE31"/>
<path d="M6.75 8.9375V11.2188C6.75 11.9063 7.375 12.4688 8.125 12.4688C8.875 12.4688 9.5 11.9063 9.5 11.2188V8.9375H6.75Z" fill="#CE2028"/>
<path d="M7.75 8.53125H8.53125V13.2188H7.75V8.53125Z" fill="#F9F9F9"/>
<path d="M5.96875 10.0937H10.2813V10.875H5.96875V10.0937ZM7.5 9.5L7.1875 9.8125L7.28125 9.5L7.1875 9.21875L7.5 9.5ZM7.5 11.4688L7.1875 11.7813L7.28125 11.4688L7.1875 11.1563L7.5 11.4688ZM8.75 9.5L9.0625 9.8125L9 9.5L9.0625 9.21875L8.75 9.5ZM8.75 11.4688L9.0625 11.7813L9 11.4688L9.0625 11.1563L8.75 11.4688Z" fill="#F9F9F9"/>
<path d="M8.4375 3.65625H7.8125V4.28125H8.4375V3.65625Z" fill="#22408C"/>
<path d="M7.84461 3.25L7.90711 3.28125L7.96961 3.25H8.06336V3.625H7.81336V3.75H8.43836V3.625H8.18836V3.25H8.28211L8.34461 3.28125L8.40711 3.25L8.46961 3.1875L8.40711 3.125L8.34461 3.0625L8.28211 3.125H8.18836V3L8.25086 2.9375L8.18836 2.875L8.12586 2.8125L8.06336 2.875L8.00086 2.9375L8.06336 3V3.125H7.96961L7.90711 3.0625L7.84461 3.125L7.78211 3.1875L7.84461 3.25ZM10.1571 4.5C9.75086 4.28125 9.50086 4.21875 9.40711 4.375C9.40711 4.375 9.40711 4.40625 9.37586 4.40625C8.87586 4.15625 8.50086 4.125 8.12586 4.28125C7.75086 4.125 7.40711 4.15625 6.87586 4.40625C6.87586 4.375 6.87586 4.375 6.84461 4.375C6.75086 4.21875 6.50086 4.25 6.09461 4.5C5.68836 4.71875 5.31336 5.03125 5.40711 5.15625C5.43836 5.375 5.56336 5.5625 5.78211 5.78125C6.03211 5.90625 6.53211 5.9375 7.06336 5.90625C7.75086 5.875 8.46961 5.875 9.15711 5.90625C9.68836 5.9375 10.1884 5.90625 10.4384 5.78125C10.6571 5.5625 10.7821 5.375 10.8134 5.15625C10.9384 5.0625 10.5321 4.75 10.1571 4.5Z" fill="#FFCE31"/>
<path d="M8.56255 5.37499C8.81255 5.15624 8.9688 4.93749 9.0938 4.71874C8.87505 4.65624 8.6563 4.62499 8.4688 4.65624C8.50005 4.90624 8.5313 5.15624 8.56255 5.37499ZM7.68755 5.37499C7.7188 5.12499 7.75005 4.87499 7.81255 4.62499C7.62505 4.59374 7.4063 4.62499 7.18755 4.68749C7.25005 4.93749 7.43755 5.15624 7.68755 5.37499ZM10.1875 4.93749C10.1563 4.90624 10.0938 4.84374 10 4.81249C9.9063 4.78124 9.81255 4.74999 9.75005 4.74999C9.7188 4.99999 9.62505 5.24999 9.4063 5.49999C9.50005 5.49999 9.5938 5.46874 9.6563 5.43749C9.9063 5.31249 10.0625 5.15624 10.1875 5.03124C10.2188 4.99999 10.2188 4.96874 10.1875 4.93749ZM6.50005 4.71874C6.43755 4.71874 6.3438 4.74999 6.25005 4.78124C6.0938 4.84374 6.00005 4.96874 6.06255 4.99999C6.18755 5.12499 6.3438 5.24999 6.5938 5.40624C6.6563 5.43749 6.75005 5.43749 6.8438 5.46874C6.62505 5.21874 6.5313 4.99999 6.50005 4.71874Z" fill="#CE2028"/>
<path d="M5.8125 5.78125H10.4375V6.40625H5.8125V5.78125Z" fill="#FFCE31"/>
<path d="M5.8125 5.90625L5.6875 6.125L5.84375 6.28125L6.0625 6.0625L5.8125 5.90625ZM10.4375 5.90625L10.1875 6.0625L10.4062 6.28125L10.5625 6.125L10.4375 5.90625ZM8.125 5.75L7.875 5.96875L8.125 6.15625L8.375 5.96875L8.125 5.75Z" fill="#22408C"/>
<path d="M6.96875 6.1875L7.1875 5.96875L6.9375 5.8125L6.71875 6L6.96875 6.1875ZM9.28125 6.1875L9.53125 6L9.3125 5.8125L9.0625 5.96875L9.28125 6.1875Z" fill="#CE2028"/>
</g>
<defs>
<clipPath id="clip0_373_474">
<rect width="20" height="20" fill="white"/>
</clipPath>
</defs>
</svg>
